<?xml version="1.0" encoding="utf-8"?>
<!-- Generator: Adobe Illustrator 19.2.1, SVG Export Plug-In . SVG Version: 6.00 Build 0)  -->
<svg version="1.1" id="Layer_1" xmlns="http://www.w3.org/2000/svg" xmlns:xlink="http://www.w3.org/1999/xlink" x="0px" y="0px"
	 viewBox="0 0 64 64" style="enable-background:new 0 0 64 64;" xml:space="preserve">
<metadata><?xpacket begin="﻿" id="W5M0MpCehiHzreSzNTczkc9d"?>
<x:xmpmeta xmlns:x="adobe:ns:meta/" x:xmptk="Adobe XMP Core 5.6-c111 79.158366, 2015/09/25-01:12:00        ">
   <rdf:RDF xmlns:rdf="http://www.w3.org/1999/02/22-rdf-syntax-ns#">
      <rdf:Description rdf:about=""/>
   </rdf:RDF>
</x:xmpmeta>
                                                                                                    
                                                                                                    
                                                                                                    
                                                                                                    
                                                                                                    
                                                                                                    
                                                                                                    
                                                                                                    
                                                                                                    
                                                                                                    
                                                                                                    
                                                                                                    
                                                                                                    
                                                                                                    
                                                                                                    
                                                                                                    
                                                                                                    
                                                                                                    
                                                                                                    
                                                                                                    
                           
<?xpacket end="w"?></metadata>
<style type="text/css">
	.st0{fill:#231F20;}
</style>
<g>
	<path class="st0" d="M52,30.4c-0.5,0-0.8,0.4-0.8,0.8v23.4c0,2.6-2.1,4.7-4.7,4.7h-8V45.9c0-0.5-0.4-0.8-0.8-0.8h-11
		c-0.5,0-0.8,0.4-0.8,0.8v13.5h-8.1c-2.6,0-4.7-2.1-4.7-4.7V31.2c0-0.5-0.4-0.8-0.8-0.8c-0.5,0-0.8,0.4-0.8,0.8v23.5
		c0,3.4,2.8,6.2,6.2,6.2h8.8c0.5,0,0.8-0.4,0.8-0.8V46.7h9.4v13.4c0,0.5,0.4,0.8,0.8,0.8h8.8c3.4,0,6.2-2.8,6.5-6.2V31.2
		C52.8,30.7,52.4,30.4,52,30.4z"/>
	<path class="st0" d="M61.6,24.3l-7.1-5.1c0-0.1-0.1-0.2-0.2-0.2c-1-0.8-1.9-2.5-1.9-3.7V6.7c0-1.9-1.6-3.5-3.5-3.5h-2.6
		c-1.9,0-3.5,1.6-3.5,3.5v2.8c0,0.5-0.1,0.7-0.2,0.8c-0.2,0-0.4,0-0.8-0.3c-0.1-0.1-0.2-0.1-0.3-0.1l-7.4-5.4
		c-0.8-0.6-1.4-1-1.5-1.1l-0.1-0.1c-0.2-0.2-0.6-0.2-0.9,0c-0.1,0-0.1,0-0.1,0c-0.2,0.1-1.1,0.8-2.2,1.6L2.4,24.2
		c-0.8,0.6-1.3,1.4-1.4,2.3c-0.2,0.9,0.1,1.9,0.6,2.6l1,1.4c0.7,1,1.9,1.5,3.2,1.4c0.2,0,0.3,0,0.4-0.1L32,13.2l25.7,18.6
		c0.1,0,0.3,0.1,0.4,0.1c0.2,0,0.3,0,0.4,0c1.1,0,2.2-0.5,2.9-1.3l1-1.4C63.5,27.6,63.2,25.4,61.6,24.3z M44.4,9.6V6.7
		c0-1,0.8-1.9,1.9-1.9h2.6c1,0,1.9,0.8,1.9,1.9v8.7c0,0.4,0.1,0.9,0.2,1.4c-2.4-1.7-5.4-3.9-7.4-5.3C44.1,11.1,44.4,10.4,44.4,9.6z
		 M61.1,28.2l-1,1.4c-0.4,0.5-1,0.8-1.6,0.8L32.4,11.6c-0.2-0.2-0.6-0.2-0.9,0l-26,18.8c-0.7,0-1.2-0.3-1.6-0.8l-1-1.4
		c-0.3-0.4-0.4-0.9-0.3-1.4c0.1-0.5,0.4-1,0.8-1.3L30.2,6.1c0.9-0.6,1.5-1,1.8-1.3c0.3,0.2,0.6,0.5,1.2,0.9l7.8,5.7
		c1.1,0.7,9.2,6.6,11.7,8.4c0.2,0.2,0.4,0.3,0.6,0.5c0.1,0,0.1,0.1,0.2,0.1l7.2,5.1C61.5,26.1,61.7,27.3,61.1,28.2z"/>
</g>
</svg>
