<?xml version="1.0" encoding="utf-8"?>
<!-- Generator: Adobe Illustrator 16.0.0, SVG Export Plug-In . SVG Version: 6.00 Build 0)  -->
<!DOCTYPE svg PUBLIC "-//W3C//DTD SVG 1.1//EN" "http://www.w3.org/Graphics/SVG/1.1/DTD/svg11.dtd">
<svg version="1.1" id="Layer_1" xmlns="http://www.w3.org/2000/svg" xmlns:xlink="http://www.w3.org/1999/xlink" x="0px" y="0px"
	 width="130px" height="130px" viewBox="0 0 130 130" enable-background="new 0 0 130 130" xml:space="preserve">
<rect fill="none" width="130" height="130"/>
<path fill="#4D4D4D" d="M128.783,59.804c-2.865-35.221-33.742-61.456-68.98-58.59C24.579,4.079-1.656,34.961,1.218,70.193
	c2.865,35.221,33.742,61.467,68.971,58.592C105.413,125.913,131.647,95.036,128.783,59.804z M102.216,27.792
	c1.794-0.146,3.61,0.664,4.921,2.399l10.715,20.9c1.165,3.722-1.065,7.018-4.949,7.344l-34.656,2.818
	c-3.89,0.314-4.991-1.863-2.478-4.827l22.511-26.492C99.386,28.62,100.792,27.903,102.216,27.792z M30.185,22.86l20.906-10.715
	c0.489-0.151,0.979-0.25,1.453-0.291c3.092-0.245,5.611,1.881,5.888,5.241l2.815,34.656c0.195,2.376-0.547,3.716-1.822,3.82
	c-0.815,0.069-1.847-0.367-3.005-1.346L29.922,31.717C26.955,29.19,27.075,25.207,30.185,22.86z M10.591,59.816l7.189-22.351
	c1.013-1.934,2.688-3.017,4.479-3.162c1.412-0.117,2.912,0.349,4.222,1.473l26.497,22.502c2.976,2.527,2.225,4.845-1.659,5.165
	l-34.653,2.819C12.781,66.582,10.047,63.677,10.591,59.816z M27.782,102.205c-1.791,0.151-3.616-0.658-4.924-2.394L12.149,78.905
	c-1.173-3.722,1.066-7.023,4.944-7.344l34.65-2.812c3.893-0.32,5.008,1.857,2.48,4.827l-22.508,26.497
	C30.606,101.378,29.2,102.095,27.782,102.205z M61.3,119.454c-0.478,0.041-0.973,0.035-1.485-0.04l-22.362-7.204
	c-3.45-1.806-4.208-5.725-1.689-8.694l22.511-26.497c0.976-1.159,1.928-1.747,2.746-1.812c1.289-0.104,2.225,1.101,2.419,3.477
	l2.825,34.645C66.541,116.7,64.392,119.204,61.3,119.454z M66.553,51.319l-2.819-34.65c-0.279-3.366,1.87-5.876,4.968-6.126
	c0.469-0.041,0.967-0.023,1.474,0.047l22.356,7.204c3.459,1.811,4.216,5.725,1.694,8.694L71.718,52.979
	c-0.984,1.153-1.934,1.753-2.749,1.817C67.696,54.895,66.744,53.696,66.553,51.319z M99.805,107.144L78.91,117.853
	c-0.495,0.151-0.984,0.251-1.462,0.286c-3.092,0.256-5.605-1.87-5.888-5.241l-2.818-34.645c-0.198-2.376,0.538-3.722,1.834-3.826
	c0.81-0.07,1.838,0.367,2.993,1.346l26.492,22.508C103.031,100.808,102.926,104.791,99.805,107.144z M119.407,70.182l-7.204,22.362
	c-1.005,1.922-2.679,3.017-4.461,3.156c-1.421,0.122-2.923-0.355-4.236-1.468L77.015,71.719c-2.974-2.527-2.225-4.845,1.668-5.165
	l34.65-2.825C117.217,63.415,119.954,66.32,119.407,70.182z"/>
</svg>
