<?xml version="1.0" encoding="utf-8"?>
<!-- Generator: Adobe Illustrator 19.2.1, SVG Export Plug-In . SVG Version: 6.00 Build 0)  -->
<svg version="1.1" id="Layer_1" xmlns="http://www.w3.org/2000/svg" xmlns:xlink="http://www.w3.org/1999/xlink" x="0px" y="0px"
	 viewBox="0 0 64 64" style="enable-background:new 0 0 64 64;" xml:space="preserve">
<metadata><?xpacket begin="﻿" id="W5M0MpCehiHzreSzNTczkc9d"?>
<x:xmpmeta xmlns:x="adobe:ns:meta/" x:xmptk="Adobe XMP Core 5.6-c111 79.158366, 2015/09/25-01:12:00        ">
   <rdf:RDF xmlns:rdf="http://www.w3.org/1999/02/22-rdf-syntax-ns#">
      <rdf:Description rdf:about=""/>
   </rdf:RDF>
</x:xmpmeta>
                                                                                                    
                                                                                                    
                                                                                                    
                                                                                                    
                                                                                                    
                                                                                                    
                                                                                                    
                                                                                                    
                                                                                                    
                                                                                                    
                                                                                                    
                                                                                                    
                                                                                                    
                                                                                                    
                                                                                                    
                                                                                                    
                                                                                                    
                                                                                                    
                                                                                                    
                                                                                                    
                           
<?xpacket end="w"?></metadata>
<style type="text/css">
	.st0{fill:#231F20;}
</style>
<g>
	<g>
		<g>
			<path class="st0" d="M39,61c-0.4,0-0.7-0.3-0.8-0.7c-1-4.4-4-14.3-5.8-16.6l-0.1-0.1C30,39.4,23,39.5,23,39.5h-6
				c-0.1,0-5.2-0.1-8,4c-1.5,2.1-4,10.8-5.3,16.3c-0.1,0.5-0.6,0.7-1,0.6c-0.5-0.1-0.7-0.6-0.6-1c1-4.4,3.7-14.2,5.6-16.9
				c3.4-4.9,9.2-4.8,9.5-4.7h5.9c0.3,0,8-0.2,10.9,5c2.1,2.8,5.2,13.3,6.1,17.2c0.1,0.5-0.2,0.9-0.6,1C39.2,61,39.1,61,39,61z
				 M20.8,35c-7.3,0-13.2-5.9-13.2-13.2S13.5,8.6,20.8,8.6S34,14.5,34,21.8S28.1,35,20.8,35z M20.8,10.3c-6.3,0-11.5,5.1-11.5,11.5
				c0,6.3,5.1,11.5,11.5,11.5c6.3,0,11.5-5.1,11.5-11.5C32.3,15.5,27.1,10.3,20.8,10.3z"/>
		</g>
	</g>
	<g>
		<path class="st0" d="M39.7,29.5c-2.1,0-3.7-1.4-3.7-3.2c0-1.8,1.7-3.2,3.7-3.2c2.1,0,3.7,1.4,3.7,3.2S41.7,29.5,39.7,29.5z
			 M39.7,24.9c-1.1,0-2,0.7-2,1.5s0.9,1.5,2,1.5s2-0.7,2-1.5S40.8,24.9,39.7,24.9z M50.2,22.5c-6.6,0-11.9-4.4-11.9-9.8
			s5.3-9.8,11.9-9.8s11.9,4.4,11.9,9.8C62.1,18.1,56.8,22.5,50.2,22.5z M50.2,4.7c-5.6,0-10.2,3.6-10.2,8s4.6,8.1,10.2,8.1
			s10.2-3.6,10.2-8.1C60.4,8.3,55.8,4.7,50.2,4.7z"/>
	</g>
</g>
</svg>
