<?xml version="1.0" encoding="utf-8"?>
<!-- Generator: Adobe Illustrator 16.0.0, SVG Export Plug-In . SVG Version: 6.00 Build 0)  -->
<!DOCTYPE svg PUBLIC "-//W3C//DTD SVG 1.1//EN" "http://www.w3.org/Graphics/SVG/1.1/DTD/svg11.dtd">
<svg version="1.1" id="Layer_1" xmlns="http://www.w3.org/2000/svg" xmlns:xlink="http://www.w3.org/1999/xlink" x="0px" y="0px"
	 width="130px" height="130px" viewBox="0 0 130 130" enable-background="new 0 0 130 130" xml:space="preserve">
<rect fill="none" width="130" height="130"/>
<g>
	<g>
		<path fill="#4D4D4D" d="M44.64,65.439c14.47,0,26.196-11.712,26.196-26.195c0-14.462-11.727-26.19-26.196-26.19
			c-14.473,0-26.189,11.728-26.189,26.19C18.45,53.727,30.167,65.439,44.64,65.439z M83.719,122.255l-0.274-1.418
			c-2.11-9.113-8.5-30.682-12.654-35.935c-5.609-10.277-21.607-9.787-21.607-9.787H36.483c0,0-11.819-0.421-18.589,9.312
			c-3.613,5.197-9.23,25.227-11.583,35.292c-0.417,1.568-0.552,2.511-0.552,2.511C4.81,125.957,7.178,129,11.019,129h67.518
			C82.379,129,84.714,125.963,83.719,122.255z"/>
	</g>
	<g>
		<path fill="#4D4D4D" d="M85.287,42.181c-3.38,0-6.118,2.212-6.118,4.944c0,2.739,2.738,4.949,6.118,4.949
			c3.383,0,6.124-2.21,6.124-4.949C91.411,44.393,88.67,42.181,85.287,42.181z M101.011,1C88.066,1,77.573,9.486,77.573,19.948
			c0,10.457,10.493,18.956,23.438,18.956c12.946,0,23.439-8.499,23.439-18.956C124.45,9.486,113.957,1,101.011,1z"/>
	</g>
</g>
</svg>
