<?xml version="1.0" encoding="utf-8"?>
<!-- Generator: Adobe Illustrator 16.0.0, SVG Export Plug-In . SVG Version: 6.00 Build 0)  -->
<!DOCTYPE svg PUBLIC "-//W3C//DTD SVG 1.1//EN" "http://www.w3.org/Graphics/SVG/1.1/DTD/svg11.dtd">
<svg version="1.1" id="Layer_1" xmlns="http://www.w3.org/2000/svg" xmlns:xlink="http://www.w3.org/1999/xlink" x="0px" y="0px"
	 width="130px" height="130px" viewBox="0 0 130 130" enable-background="new 0 0 130 130" xml:space="preserve">
<rect fill="none" width="130" height="130"/>
<g>
	<path fill="#4D4D4D" d="M126.888,37.287H33.261l-6.372-10.1H5.561C3.052,27.188,1,29.251,1,31.764v1.708
		c0,2.52,2.052,4.576,4.561,4.576h13.908c-0.332,0.496-0.304,1.195,0.152,1.976l24.112,40.209c0.892,1.516,3.072,2.748,4.832,2.748
		h56.957c1.772,0,3.805-1.304,4.561-2.896l18.641-39.9C129.472,38.588,128.651,37.287,126.888,37.287z M95.227,48.296
		c0-1.76,1.428-3.204,3.188-3.204h1.22c1.768,0,3.2,1.444,3.2,3.204v0.7c0,1.756-1.433,3.2-3.2,3.2h-1.22
		c-1.761,0-3.188-1.444-3.188-3.2V48.296z M83.599,48.296c0-1.76,1.436-3.204,3.188-3.204h1.229c1.76,0,3.204,1.444,3.204,3.204v0.7
		c0,1.756-1.444,3.2-3.204,3.2h-1.229c-1.752,0-3.188-1.444-3.188-3.2V48.296z M71.97,48.296c0-1.76,1.437-3.204,3.192-3.204h1.216
		c1.76,0,3.204,1.444,3.204,3.204v0.7c0,1.756-1.444,3.2-3.204,3.2h-1.216c-1.756,0-3.192-1.444-3.192-3.2V48.296z M60.33,48.296
		c0-1.76,1.443-3.204,3.204-3.204h1.212c1.76,0,3.204,1.444,3.204,3.204v0.7c0,1.756-1.444,3.2-3.204,3.2h-1.212
		c-1.761,0-3.204-1.444-3.204-3.2V48.296z M48.701,48.296c0-1.76,1.452-3.204,3.204-3.204h1.208c1.761,0,3.208,1.444,3.208,3.204
		v0.7c0,1.756-1.447,3.2-3.208,3.2h-1.208c-1.752,0-3.204-1.444-3.204-3.2V48.296z M40.277,52.196c-1.765,0-3.204-1.444-3.204-3.2
		v-0.7c0-1.76,1.439-3.204,3.204-3.204h1.212c1.752,0,3.188,1.444,3.188,3.204v0.7c0,1.756-1.437,3.2-3.188,3.2H40.277z
		 M47.394,63.452h-1.221c-1.76,0-3.203-1.444-3.203-3.208V59.54c0-1.76,1.443-3.2,3.203-3.2h1.221c1.752,0,3.2,1.44,3.2,3.2v0.704
		C50.594,62.008,49.146,63.452,47.394,63.452z M56.321,72.032c0,1.764-1.447,3.196-3.208,3.196h-1.208
		c-1.752,0-3.204-1.433-3.204-3.196v-0.696c0-1.764,1.452-3.2,3.204-3.2h1.208c1.761,0,3.208,1.437,3.208,3.2V72.032z
		 M57.806,63.452c-1.76,0-3.196-1.444-3.196-3.208V59.54c0-1.76,1.437-3.2,3.196-3.2h1.216c1.765,0,3.196,1.44,3.196,3.2v0.704
		c0,1.764-1.432,3.208-3.196,3.208H57.806z M67.95,72.032c0,1.764-1.444,3.196-3.204,3.196h-1.212c-1.761,0-3.204-1.433-3.204-3.196
		v-0.696c0-1.764,1.443-3.2,3.204-3.2h1.212c1.76,0,3.204,1.437,3.204,3.2V72.032z M69.438,63.452c-1.771,0-3.199-1.444-3.199-3.208
		V59.54c0-1.76,1.428-3.2,3.199-3.2h1.213c1.768,0,3.195,1.44,3.195,3.2v0.704c0,1.764-1.428,3.208-3.195,3.208H69.438z
		 M79.582,72.032c0,1.764-1.444,3.196-3.204,3.196h-1.216c-1.756,0-3.192-1.433-3.192-3.196v-0.696c0-1.764,1.437-3.2,3.192-3.2
		h1.216c1.76,0,3.204,1.437,3.204,3.2V72.032z M81.062,63.452c-1.761,0-3.204-1.444-3.204-3.208V59.54c0-1.76,1.443-3.2,3.204-3.2
		h1.216c1.76,0,3.2,1.44,3.2,3.2v0.704c0,1.764-1.44,3.208-3.2,3.208H81.062z M91.219,72.032c0,1.764-1.444,3.196-3.204,3.196
		h-1.229c-1.752,0-3.188-1.433-3.188-3.196v-0.696c0-1.764,1.436-3.2,3.188-3.2h1.229c1.76,0,3.204,1.437,3.204,3.2V72.032z
		 M92.698,63.452c-1.76,0-3.204-1.444-3.204-3.208V59.54c0-1.76,1.444-3.2,3.204-3.2h1.216c1.761,0,3.2,1.44,3.2,3.2v0.704
		c0,1.764-1.439,3.208-3.2,3.208H92.698z M102.835,72.032c0,1.764-1.433,3.196-3.2,3.196h-1.22c-1.761,0-3.188-1.433-3.188-3.196
		v-0.696c0-1.764,1.428-3.2,3.188-3.2h1.22c1.768,0,3.2,1.437,3.2,3.2V72.032z M108.73,60.244c0,1.764-1.428,3.208-3.188,3.208
		h-1.212c-1.765,0-3.204-1.444-3.204-3.208V59.54c0-1.76,1.439-3.2,3.204-3.2h1.212c1.76,0,3.188,1.44,3.188,3.2V60.244z
		 M114.471,48.996c0,1.756-1.443,3.2-3.204,3.2h-1.212c-1.764,0-3.204-1.444-3.204-3.2v-0.7c0-1.76,1.44-3.204,3.204-3.204h1.212
		c1.761,0,3.204,1.444,3.204,3.204V48.996z"/>
	<g>
		<path fill="#4D4D4D" d="M57.758,88.305c-4.017,0-7.257,3.252-7.257,7.252c0,4.017,3.24,7.256,7.257,7.256
			c4.008,0,7.256-3.239,7.256-7.256C65.014,91.557,61.766,88.305,57.758,88.305z M99.703,88.305c-4.005,0-7.253,3.252-7.253,7.252
			c0,4.017,3.248,7.256,7.253,7.256c4.008,0,7.26-3.239,7.26-7.256C106.963,91.557,103.711,88.305,99.703,88.305z"/>
	</g>
</g>
</svg>
